<svg width="65" height="70" viewBox="0 0 65 70" fill="none" xmlns="http://www.w3.org/2000/svg">
<g id="Icon">
<path id="Vector" d="M43.5 34.9999V35.0014C43.4951 36.621 43.1141 38.2173 42.387 39.6644C41.7902 40.8521 40.9737 41.9126 39.9835 42.7913L42.9008 43.9588C42.9011 43.9589 42.9015 43.959 42.9018 43.9592L42.9021 43.9593L42.7163 44.4235C44.575 45.1612 46.1686 46.4415 47.2893 48.0977C48.4101 49.7539 49.0062 51.7092 49 53.709L43.5 34.9999ZM43.5 34.9999C43.5 34.8247 43.4813 34.6611 43.4627 34.5195C43.4593 34.4938 43.456 34.4692 43.4527 34.4455C45.1522 33.5138 47.06 33.0248 49 33.0248C51.0004 33.0248 52.9665 33.5448 54.7054 34.5338C54.7056 34.5339 54.7057 34.534 54.7059 34.5341L60.7204 37.9709L43.5 34.9999ZM49.5 53.7106C49.5 53.7101 49.5 53.7097 49.5 53.7093L60.7207 37.9711C61.8678 38.6279 62.8214 39.5759 63.485 40.7192C64.1486 41.8626 64.4988 43.1609 64.5 44.4829V52.9995C64.498 54.9882 63.7071 56.8948 62.301 58.301C60.8948 59.7072 58.9881 60.498 56.9995 60.5H49.5L49.5 53.7106ZM41.0427 48.6008L41.0442 48.6014C42.0664 49.0068 42.9429 49.7109 43.5593 50.6216C44.1758 51.5324 44.5036 52.6077 44.5 53.7074V53.709V60.5H21.5L21.5 53.709L21.5 53.7074C21.4964 52.6079 21.824 51.5327 22.44 50.622C23.0561 49.7113 23.9321 49.0072 24.954 48.6013L24.9551 48.6009L30.2148 46.4973L30.2154 46.4971C32.003 45.7795 33.9986 45.7795 35.7863 46.4971L35.7867 46.4973L41.0427 48.6008ZM9.5 16.9995C9.5001 15.5163 9.93996 14.0665 10.764 12.8332C11.5881 11.5999 12.7594 10.6386 14.1299 10.0709C15.5003 9.50325 17.0083 9.35472 18.4632 9.64411C19.918 9.9335 21.2544 10.6478 22.3033 11.6967C23.3522 12.7456 24.0665 14.082 24.3559 15.5368C24.6453 16.9917 24.4968 18.4997 23.9291 19.8701C23.3614 21.2406 22.4001 22.4119 21.1668 23.236C19.9335 24.06 18.4837 24.4999 17.0005 24.5C15.0119 24.498 13.1052 23.7072 11.699 22.301C10.2929 20.8948 9.50199 18.9882 9.5 16.9995ZM53.1668 27.236C51.9335 28.06 50.4837 28.4999 49.0005 28.5C47.0119 28.498 45.1052 27.7072 43.699 26.301C42.2929 24.8948 41.502 22.9882 41.5 20.9995C41.5001 19.5163 41.94 18.0665 42.764 16.8332C43.5881 15.5999 44.7594 14.6386 46.1299 14.0709C47.5003 13.5032 49.0083 13.3547 50.4632 13.6441C51.918 13.9335 53.2544 14.6478 54.3033 15.6967C55.3522 16.7456 56.0665 18.082 56.3559 19.5368C56.6453 20.9917 56.4968 22.4997 55.9291 23.8701C55.3614 25.2406 54.4001 26.4119 53.1668 27.236ZM18.2968 47.8172C17.1198 49.5565 16.4937 51.6098 16.5 53.7099V60.5H9.0005C7.01185 60.498 5.10522 59.7072 3.69904 58.301C2.29291 56.8948 1.50205 54.9883 1.5 52.9997V40.4827C1.50122 39.1605 1.85149 37.8622 2.5154 36.7188C3.17935 35.5754 4.13344 34.6276 5.28119 33.9712L11.2939 30.5342C13.0328 29.545 14.9991 29.0249 16.9998 29.0249C19.0001 29.0249 20.9661 29.5449 22.7049 30.5338C22.7052 30.5339 22.7054 30.5341 22.7057 30.5342L23.362 30.9092C22.4602 32.9745 22.2575 35.283 22.7929 37.481C23.2962 39.5471 24.4234 41.4 26.0109 42.7937L23.0995 43.9579C23.0992 43.958 23.099 43.9581 23.0987 43.9582C21.147 44.7332 19.4737 46.0779 18.2968 47.8172ZM36.0556 39.5731C35.1513 40.1773 34.0881 40.4999 33.0005 40.5C31.5421 40.4986 30.1439 39.9186 29.1126 38.8874C28.0814 37.8561 27.5014 36.4579 27.5 34.9995C27.5001 33.9119 27.8227 32.8487 28.4269 31.9444C29.0313 31.0399 29.8902 30.3349 30.8952 29.9187C31.9002 29.5024 33.0061 29.3935 34.073 29.6057C35.1399 29.8179 36.1199 30.3417 36.8891 31.1109C37.6583 31.8801 38.1821 32.8601 38.3943 33.927C38.6065 34.9939 38.4976 36.0998 38.0813 37.1048C37.6651 38.1098 36.9601 38.9687 36.0556 39.5731Z" stroke="#1F2C34"/>
</g>
</svg>
