<svg width="51" height="50" viewBox="0 0 51 50" fill="none" xmlns="http://www.w3.org/2000/svg">
<g id="Icon">
<path id="Vector" fill-rule="evenodd" clip-rule="evenodd" d="M26.4208 37.7499C26.5933 37.7305 26.7779 37.7305 26.982 37.7499H45.0094C45.5366 37.7499 46.0176 37.5337 46.365 37.1863C46.7123 36.8389 46.9286 36.358 46.9286 35.8308C46.9286 35.3036 46.7123 34.8226 46.365 34.4752C46.0176 34.1279 45.5366 33.9117 45.0094 33.9117H5.99054C5.46339 33.9117 4.98239 34.1279 4.635 34.4752C4.28762 34.8226 4.07141 35.3036 4.07141 35.8308C4.07141 36.3579 4.28762 36.8389 4.635 37.1863C4.98239 37.5337 5.46337 37.7499 5.99054 37.7499H26.4229H26.4208ZM25.2207 15.5607H25.211C20.1897 15.5632 15.6419 17.5868 12.3527 20.8614C9.11695 24.0802 7.0958 28.5088 7.02776 33.4087H43.4011C43.3331 28.5089 41.3119 24.0828 38.0761 20.8614C34.7869 17.5868 30.239 15.5607 25.2178 15.5607H25.2207ZM25.211 15.0579H25.9131C26.3139 15.0579 26.6783 14.8927 26.9431 14.6303C27.2079 14.3655 27.3706 14.0012 27.3706 13.6004C27.3706 13.1995 27.2054 12.8351 26.9431 12.5704C26.6783 12.3056 26.3139 12.1428 25.9131 12.1428H24.4555C24.0547 12.1428 23.6902 12.308 23.4255 12.5704C23.1607 12.8352 22.998 13.1995 22.998 13.6004C22.998 14.0012 23.1631 14.3656 23.4255 14.6303C23.6903 14.8951 24.0547 15.0579 24.4555 15.0579H25.2134H25.211ZM13.5381 22.4479C13.662 22.3847 13.8126 22.4333 13.8757 22.5572C13.9389 22.6811 13.8903 22.8317 13.7664 22.8948C12.9259 23.3248 11.9954 24.6123 11.2278 26.0626C10.3096 27.7972 9.63909 29.7406 9.63909 30.7268C9.63909 30.8653 9.52734 30.9795 9.38644 30.9795C9.24797 30.9795 9.1338 30.8677 9.1338 30.7268C9.1338 29.6677 9.82858 27.6271 10.7808 25.827C11.5898 24.299 12.5931 22.9313 13.5356 22.4479L13.5381 22.4479Z" fill="white"/>
</g>
</svg>
