<svg width="50" height="50" viewBox="0 0 50 50" fill="none" xmlns="http://www.w3.org/2000/svg">
<g id="Icon">
<path id="Vector" d="M24.7238 3.57311C13.857 3.69714 4.65352 12.0231 3.65891 23.083C2.87642 31.7916 7.409 39.7311 14.5761 43.7223L22.5304 28.2551L10.6149 28.1896L10.6306 21.9046L25.8358 21.8064L34.1504 5.61903C31.9339 4.57279 29.5021 3.88747 26.9158 3.65495C26.1783 3.58867 25.4471 3.56484 24.7228 3.57311H24.7238ZM35.9029 6.55197L23.0871 31.7577L16.4579 44.6716C18.5037 45.5577 20.7265 46.1302 23.0709 46.341C34.8679 47.4018 45.2676 38.7103 46.3288 26.913C47.094 18.3999 42.7918 10.6256 35.9029 6.55197ZM20.141 9.15438C20.2799 9.15438 20.4175 9.18204 20.5456 9.23571C20.6738 9.28938 20.79 9.36799 20.8875 9.46699C20.985 9.566 21.0618 9.68342 21.1135 9.8124C21.1651 9.94138 21.1906 10.0793 21.1885 10.2183C21.1885 11.1818 20.8575 12.4902 19.7314 13.6063C18.7803 14.5486 17.5966 14.6792 16.7198 14.8011C15.8436 14.923 15.2627 15.0189 14.805 15.4722C14.4247 15.8489 14.3467 16.3415 14.3467 17.0107C14.3472 17.1493 14.3203 17.2867 14.2674 17.4148C14.2144 17.5429 14.1366 17.6593 14.0384 17.7571C13.9402 17.8549 13.8236 17.9323 13.6953 17.9847C13.5669 18.0371 13.4295 18.0636 13.2909 18.0625C13.1523 18.0614 13.0153 18.0328 12.8878 17.9784C12.7603 17.924 12.6449 17.8448 12.5482 17.7455C12.4515 17.6461 12.3756 17.5286 12.3247 17.3997C12.2737 17.2707 12.2489 17.133 12.2516 16.9944C12.2516 16.1501 12.3831 14.9222 13.3322 13.9828C14.3142 13.0106 15.533 12.8467 16.4255 12.7225C17.3179 12.5983 17.8705 12.5013 18.2586 12.1169C18.9788 11.4036 19.0935 10.768 19.0935 10.2183C19.0913 10.0794 19.1168 9.94141 19.1685 9.81243C19.2202 9.68346 19.297 9.56603 19.3945 9.46703C19.4919 9.36802 19.6082 9.28941 19.7363 9.23574C19.8645 9.18207 20.002 9.15438 20.141 9.15438ZM30.7963 21.8718H39.2743L39.29 28.2878L27.5385 28.2554L30.7957 21.8721L30.7963 21.8718Z" fill="white"/>
</g>
</svg>
