<svg width="100" height="90" viewBox="0 0 100 90" fill="none" xmlns="http://www.w3.org/2000/svg">
<path id="Quote" opacity="0.15" d="M76.1134 90C68.2861 90 62.6181 87.1154 59.1093 81.3462C55.6005 75.5769 53.8462 68.9423 53.8462 61.4423C53.8462 57.1154 54.386 52.3558 55.4656 47.1634C56.5452 41.9712 58.5695 36.7789 61.5385 31.5865C64.7773 26.1058 69.2308 20.7692 74.8988 15.5769C80.5668 10.0962 88.1242 4.90385 97.5709 0L100 3.89423C94.6019 9.375 90.2834 14.1346 87.0445 18.1731C84.0756 22.2115 81.7814 25.9615 80.1619 29.4231C78.5425 32.8846 77.4629 36.0577 76.9231 38.9423C76.6532 41.8269 76.5182 44.8558 76.5182 48.0288C76.5182 50.3365 77.193 52.0673 78.5425 53.2211C79.892 54.0865 81.3765 55.2404 82.9959 56.6827C85.4251 58.4135 87.5844 60.1442 89.4737 61.875C91.6329 63.3173 92.7125 66.4904 92.7125 71.3942C92.7125 76.5865 91.0931 81.0577 87.8543 84.8077C84.6154 88.2692 80.7018 90 76.1134 90ZM22.6721 90C14.8448 90 9.04184 87.1154 5.26316 81.3462C1.75439 75.5769 0 68.9423 0 61.4423C0 57.1154 0.539811 52.5 1.61943 47.5962C2.69906 42.4039 4.8583 37.0673 8.09717 31.5865C11.336 26.1058 15.7895 20.7692 21.4575 15.5769C27.1255 10.0962 34.6829 4.90385 44.1296 0L46.5587 3.89423C41.1606 9.375 36.8421 14.1346 33.6032 18.1731C30.6343 22.2115 28.3401 25.9615 26.7206 29.4231C25.1012 32.8846 24.0216 36.0577 23.4818 38.9423C23.2119 41.8269 23.0769 44.8558 23.0769 48.0288C23.0769 50.3365 23.6167 52.0673 24.6964 53.2211C26.0459 54.375 27.5304 55.3846 29.1498 56.25C31.309 57.6923 33.4683 59.4231 35.6275 61.4423C38.0567 63.1731 39.2713 66.4904 39.2713 71.3942C39.2713 76.5865 37.6518 81.0577 34.413 84.8077C31.444 88.2692 27.5304 90 22.6721 90Z" fill="#394D8B"/>
</svg>
