<svg width="16" height="17" viewBox="0 0 16 17" fill="none" xmlns="http://www.w3.org/2000/svg">
<g id="Icon">
<path id="Vector" d="M9.92663 7.03064C9.92663 7.84064 9.26725 8.50003 8.45724 8.50003H6.98785V5.56125H8.45724C9.26725 5.56125 9.92663 6.22063 9.92663 7.03064ZM14.3348 4.09186V12.9082C14.3348 14.2582 13.2358 15.3572 11.8858 15.3572H4.04908C2.69907 15.3572 1.6001 14.2582 1.6001 12.9082V4.09186C1.6001 2.74186 2.69907 1.64288 4.04908 1.64288H11.8858C13.2358 1.64288 14.3348 2.74186 14.3348 4.09186ZM10.9062 7.03064C10.9062 5.68064 9.80724 4.58166 8.45724 4.58166H6.00826V12.4184H6.98785V9.47962H8.45724C9.80724 9.47962 10.9062 8.38064 10.9062 7.03064Z" fill="white"/>
</g>
</svg>
