<svg width="66" height="66" viewBox="0 0 66 66" fill="none" xmlns="http://www.w3.org/2000/svg">
<path id="Vector" d="M65.5898 30.918L62.5232 24.5057C61.862 23.1239 60.4816 22.222 58.9607 22.1393L59.1922 21.8332C60.0684 20.6665 60.275 19.1606 59.746 17.8037L57.1341 11.052C56.7208 9.9847 55.8777 9.12421 54.8279 8.68569L48.4139 6.02972C46.8599 5.38435 45.0828 5.73186 43.8843 6.90677L43.3305 7.45286V7.09706C43.3305 5.48362 42.3882 3.99429 40.9252 3.29927L34.7921 0.40336C33.6514 -0.134453 32.3538 -0.134453 31.2131 0.40336L25.08 3.29927C23.617 3.98602 22.6747 5.47535 22.6747 7.09706V7.44458L22.121 6.90677C20.9224 5.73186 19.1453 5.38435 17.5914 6.02972L11.1773 8.68569C10.1193 9.12421 9.28444 9.9847 8.87116 11.052L6.25923 17.8037C5.73023 19.1606 5.94515 20.6665 6.81304 21.8332L7.04447 22.1393C5.5236 22.222 4.14325 23.1239 3.482 24.5057L0.415437 30.918C-0.146624 32.0847 -0.13836 33.4251 0.440233 34.5917L3.87873 41.5419C4.50692 42.8244 5.71371 43.6683 7.10234 43.8421C6.00301 45.0005 5.66412 46.7049 6.21791 48.2025L8.4992 54.2839C8.88768 55.3265 9.66467 56.1622 10.6813 56.6255L17.7154 59.8441C19.3189 60.5722 21.22 60.2247 22.4516 58.9671L22.683 58.7271V58.9009C22.683 60.5143 23.6253 62.0036 25.0883 62.6987L31.2214 65.5946C31.7917 65.8594 32.4034 66 33.0068 66C33.6101 66 34.23 65.8676 34.7921 65.5946L40.9252 62.6987C42.3882 62.0119 43.3305 60.5226 43.3305 58.9009V58.7271L43.562 58.9671C44.7935 60.2247 46.6946 60.5722 48.2981 59.8441L55.3322 56.6255C56.3488 56.1622 57.1258 55.3265 57.5143 54.2839L59.7956 48.2025C60.3576 46.7049 60.0105 45.0005 58.9111 43.8421C60.2998 43.6683 61.4983 42.8161 62.1348 41.5419L65.5732 34.5917C66.1353 33.4333 66.1436 32.0929 65.5898 30.918ZM45.8019 30.5788L43.6363 28.3862C43.4379 28.1793 43.3222 27.9063 43.3222 27.625V25.2338H50.6704L45.8019 30.5788ZM45.8928 35.0882L51.5052 40.7641H43.3884L43.4875 38.1165C43.4958 37.86 43.595 37.6118 43.7686 37.4214L45.8928 35.0882ZM46.0499 9.12421C46.364 8.81807 46.8186 8.72706 47.2236 8.90082L53.6377 11.5568C53.9104 11.6726 54.1254 11.896 54.2328 12.1691L56.8447 18.9207C56.977 19.2765 56.9274 19.6653 56.7042 19.9632L55.4148 21.6842C55.2082 21.9572 54.8858 22.1227 54.5469 22.1227H43.3222V11.7967L46.0499 9.12421ZM40.2226 22.1145H38.0405C37.7512 22.1145 37.4784 21.9986 37.2718 21.7918L35.9906 20.5093C35.784 20.3024 35.6683 20.0294 35.6683 19.7315C35.6683 19.4419 35.784 19.1606 35.9989 18.9621L40.2226 14.825V22.1145ZM25.7743 7.0888C25.7743 6.66682 26.0223 6.28622 26.3943 6.10419L32.5273 3.20827C32.8249 3.06761 33.1638 3.06761 33.4531 3.20827L39.5861 6.10419C39.9664 6.28622 40.2061 6.66682 40.2061 7.0888V10.4812L33.8085 16.7446C33.4696 17.0838 33.1886 17.4644 32.9819 17.8864C32.7753 17.4727 32.5025 17.0838 32.1554 16.7446L25.7578 10.4812V7.0888H25.7743ZM30.3287 19.7398C30.3287 20.0294 30.2212 20.3107 30.0146 20.5176L28.7334 21.8C28.5268 22.0069 28.254 22.1227 27.9647 22.1227H25.7826V14.8333L30.0063 18.9703C30.213 19.1772 30.3287 19.4502 30.3287 19.7398ZM9.14394 18.9207L11.7559 12.1691C11.8633 11.896 12.0782 11.6726 12.351 11.5568L18.7651 8.90082C18.8974 8.8429 19.0379 8.81807 19.1784 8.81807C19.4594 8.81807 19.7322 8.92564 19.9388 9.13249L22.6665 11.7967V22.1227H11.4418C11.1029 22.1227 10.7723 21.9572 10.5739 21.6842L9.28445 19.9632C9.06127 19.6653 9.01169 19.2682 9.14394 18.9207ZM20.1951 30.5788L15.3266 25.2255H22.6747V27.6167C22.6747 27.9063 22.5673 28.1793 22.3606 28.3779L20.1951 30.5788ZM22.2284 37.4214C22.4019 37.6118 22.5012 37.86 22.5094 38.1165L22.6086 40.7641H14.4918L20.1041 35.0882L22.2284 37.4214ZM7.62305 40.7724C7.20977 40.7724 6.83782 40.5407 6.64771 40.1684L3.20922 33.2182C3.06044 32.9121 3.06045 32.5728 3.20097 32.2667L6.2675 25.846C6.44935 25.4737 6.82957 25.2255 7.25111 25.2255H10.6317C10.9376 25.2255 11.2268 25.3579 11.4335 25.5813L17.9964 32.788L10.1193 40.7641H7.62305V40.7724ZM22.6747 54.2839L20.2281 56.7827C19.9057 57.1054 19.4181 57.1964 19.0048 57.0061L11.9708 53.7875C11.7063 53.6634 11.5079 53.4483 11.4087 53.1835L9.1274 47.1021C8.97862 46.7049 9.07782 46.2581 9.37538 45.952L11.4335 43.8669H22.683V54.2839H22.6747ZM40.2226 58.9009C40.2226 59.3228 39.9746 59.7034 39.6027 59.8855L33.4696 62.7814C33.1721 62.922 32.8332 62.922 32.5439 62.7814L26.4108 59.8855C26.0306 59.7034 25.7909 59.3228 25.7909 58.9009V55.5582L32.3372 48.881C32.61 48.6079 32.8332 48.3018 33.0068 47.9874C33.1886 48.3101 33.4118 48.6079 33.6763 48.881L40.2226 55.5582V58.9009ZM25.7743 51.1232V43.8835H28.4111C28.7086 43.8835 28.9979 44.0076 29.1963 44.2227L30.1221 45.199C30.5271 45.6293 30.5188 46.2912 30.1055 46.7049L25.7743 51.1232ZM40.2226 51.1232L35.8914 46.7049C35.4782 46.283 35.4781 45.621 35.8749 45.199L36.7924 44.2227C36.9991 44.0076 37.2883 43.8835 37.5859 43.8835H40.2226V51.1232ZM41.4707 35.3281C40.8012 36.0562 40.421 37.0077 40.3797 38.0006L40.2722 40.7724H37.5776C36.4287 40.7724 35.3211 41.2523 34.5359 42.088L33.6184 43.0643C33.3704 43.3208 33.1638 43.6104 32.9985 43.9083C32.8332 43.6104 32.6265 43.3291 32.3786 43.0643L31.4528 42.088C30.6676 41.2523 29.5517 40.7724 28.4111 40.7724H25.7165L25.609 38.0006C25.576 37.0077 25.1875 36.0645 24.518 35.3281L22.2862 32.8707L24.5675 30.5623C25.3528 29.768 25.7826 28.7254 25.7826 27.6084V25.2172H27.9647C29.0806 25.2172 30.1386 24.7787 30.9321 23.9844L32.2132 22.7019C32.5439 22.371 32.8001 21.9986 32.9985 21.6015C33.1969 22.0069 33.4614 22.3792 33.792 22.7019L35.0732 23.9844C35.8667 24.7787 36.9164 25.2172 38.0405 25.2172H40.2226V27.6084C40.2226 28.7171 40.6524 29.768 41.4294 30.5623L43.7107 32.8707L41.4707 35.3281ZM56.8778 47.1103L54.5965 53.1917C54.4973 53.4648 54.2907 53.68 54.0345 53.7958L47.0004 57.0144C46.5871 57.2047 46.0912 57.1137 45.7771 56.791L43.3305 54.2922V43.8835H54.58L56.6381 45.9685C56.9274 46.2664 57.0266 46.7132 56.8778 47.1103ZM62.7795 33.21L59.341 40.1602C59.1591 40.5325 58.7789 40.7641 58.3656 40.7641H55.8611L47.984 32.788L54.5469 25.5813C54.7536 25.3579 55.0428 25.2255 55.3487 25.2255H58.7293C59.1426 25.2255 59.5311 25.4654 59.7129 25.846L62.7795 32.2584C62.9283 32.5646 62.9283 32.9121 62.7795 33.21Z" fill="#fff"/>
</svg>
