<svg width="50" height="50" viewBox="0 0 50 50" fill="none" xmlns="http://www.w3.org/2000/svg">
<g id="Icon">
<path id="Vector" d="M24.8979 3.57153C20.5696 3.57727 16.4203 5.29923 13.3597 8.3598C10.2991 11.4204 8.57715 15.5698 8.57141 19.8981C8.57141 35.9797 24.3741 46.2178 24.5306 46.3198C24.64 46.3909 24.7676 46.4287 24.8979 46.4287C25.0283 46.4287 25.1559 46.3909 25.2653 46.3198C25.4218 46.2178 41.2245 35.9797 41.2245 19.8981C41.2187 15.5698 39.4968 11.4204 36.4362 8.3598C33.3756 5.29923 29.2263 3.57727 24.8979 3.57153ZM24.8979 28.0613C25.3016 28.0613 25.6962 28.181 26.0318 28.4053C26.3674 28.6295 26.629 28.9483 26.7834 29.3212C26.9379 29.6941 26.9783 30.1044 26.8996 30.5003C26.8208 30.8962 26.6264 31.2598 26.341 31.5452C26.0556 31.8306 25.692 32.025 25.2961 32.1038C24.9002 32.1825 24.4899 32.1421 24.117 31.9876C23.7441 31.8332 23.4253 31.5716 23.2011 31.236C22.9768 30.9004 22.8571 30.5058 22.8571 30.1021C22.8587 29.5614 23.0742 29.0432 23.4566 28.6608C23.839 28.2784 24.3572 28.0629 24.8979 28.0613ZM19.6054 25.4899C19.3501 25.7452 19.0039 25.8886 18.6428 25.8886C18.2818 25.8886 17.9356 25.7452 17.6803 25.4899C17.425 25.2346 17.2815 24.8884 17.2815 24.5273C17.2815 24.1663 17.425 23.82 17.6803 23.5647C19.5977 21.6564 22.1928 20.5851 24.8979 20.5851C27.6031 20.5851 30.1982 21.6564 32.1156 23.5647C32.3709 23.82 32.5144 24.1663 32.5144 24.5273C32.5144 24.8884 32.3709 25.2346 32.1156 25.4899C31.8603 25.7452 31.5141 25.8886 31.1531 25.8886C30.792 25.8886 30.4458 25.7452 30.1905 25.4899C28.7862 24.0873 26.8827 23.2995 24.8979 23.2995C22.9132 23.2995 21.0097 24.0873 19.6054 25.4899ZM12.4762 19.0273C12.475 18.8493 12.5093 18.6728 12.5771 18.5081C12.6448 18.3434 12.7446 18.1939 12.8707 18.0681C16.0628 14.8827 20.3883 13.0936 24.8979 13.0936C29.4076 13.0936 33.733 14.8827 36.9252 18.0681C37.178 18.3247 37.3197 18.6705 37.3197 19.0307C37.3197 19.391 37.178 19.7367 36.9252 19.9933C36.6649 20.2391 36.3205 20.376 35.9626 20.376C35.6046 20.376 35.2602 20.2391 35 19.9933C32.3184 17.3185 28.6855 15.8164 24.8979 15.8164C21.1104 15.8164 17.4775 17.3185 14.7959 19.9933C14.5404 20.2481 14.1942 20.3912 13.8333 20.3912C13.4724 20.3912 13.1263 20.2481 12.8707 19.9933C12.744 19.8666 12.6438 19.716 12.5761 19.5501C12.5083 19.3842 12.4744 19.2065 12.4762 19.0273Z" fill="white"/>
</g>
</svg>
